HIERARCHY
ROOT SimulationBone
{
	OFFSET 0.000000 0.000000 0.000000
	CHANNELS 6 Xposition Yposition Zposition Zrotation Yrotation Xrotation 
	JOINT Hips
	{
		OFFSET 0.000000 0.000000 0.000000
		CHANNELS 6 Xposition Yposition Zposition Zrotation Yrotation Xrotation 
		JOINT RightUpLeg
		{
			OFFSET 0.103459 1.857814 10.548504
			CHANNELS 3 Zrotation Yrotation Xrotation
			JOINT RightLeg
			{
				OFFSET 43.500000 -0.000004 -0.000011
				CHANNELS 3 Zrotation Yrotation Xrotation
				JOINT RightFoot
				{
					OFFSET 42.372196 -0.000004 0.000004
					CHANNELS 3 Zrotation Yrotation Xrotation
					JOINT RightToe
					{
						OFFSET 17.300003 0.000001 -0.000008
						CHANNELS 3 Zrotation Yrotation Xrotation
						End Site
						{
							OFFSET 0.000000 0.000000 0.000000
						}
					}
				}
			}
		}
		JOINT LeftUpLeg
		{
			OFFSET 0.103457 1.857841 -10.548511
			CHANNELS 3 Zrotation Yrotation Xrotation
			JOINT LeftLeg
			{
				OFFSET 43.500042 -0.000038 0.000000
				CHANNELS 3 Zrotation Yrotation Xrotation
				JOINT LeftFoot
				{
					OFFSET 42.372269 -0.000023 0.000011
					CHANNELS 3 Zrotation Yrotation Xrotation
					JOINT LeftToe
					{
						OFFSET 17.300003 -0.000001 0.000023
						CHANNELS 3 Zrotation Yrotation Xrotation
						End Site
						{
							OFFSET 0.000000 0.000000 0.000000
						}
					}
				}
			}
		}
		JOINT Spine
		{
			OFFSET 6.901971 -2.603744 -0.000012
			CHANNELS 3 Zrotation Yrotation Xrotation
			JOINT Spine1
			{
				OFFSET 12.588097 -0.000002 0.000018
				CHANNELS 3 Zrotation Yrotation Xrotation
				JOINT Spine2
				{
					OFFSET 12.343208 0.000014 -0.000019
					CHANNELS 3 Zrotation Yrotation Xrotation
					JOINT Neck
					{
						OFFSET 25.832897 0.000008 0.000016
						CHANNELS 3 Zrotation Yrotation Xrotation
						JOINT Head
						{
							OFFSET 11.766600 -0.000006 0.000008
							CHANNELS 3 Zrotation Yrotation Xrotation
							End Site
							{
								OFFSET 0.000000 0.000000 0.000000
							}
						}
					}
					JOINT RightShoulder
					{
						OFFSET 19.745909 -1.480356 6.000120
						CHANNELS 3 Zrotation Yrotation Xrotation
						JOINT RightArm
						{
							OFFSET 11.284115 -0.000000 -0.000025
							CHANNELS 3 Zrotation Yrotation Xrotation
							JOINT RightForeArm
							{
								OFFSET 33.000057 0.000003 0.000029
								CHANNELS 3 Zrotation Yrotation Xrotation
								JOINT RightHand
								{
									OFFSET 25.200006 0.000029 0.000011
									CHANNELS 3 Zrotation Yrotation Xrotation
									End Site
									{
										OFFSET 0.000000 0.000000 0.000000
									}
								}
							}
						}
					}
					JOINT LeftShoulder
					{
						OFFSET 19.746088 -1.480379 -6.000049
						CHANNELS 3 Zrotation Yrotation Xrotation
						JOINT LeftArm
						{
							OFFSET 11.284159 -0.000019 -0.000011
							CHANNELS 3 Zrotation Yrotation Xrotation
							JOINT LeftForeArm
							{
								OFFSET 33.000076 -0.000001 0.000001
								CHANNELS 3 Zrotation Yrotation Xrotation
								JOINT LeftHand
								{
									OFFSET 25.199781 0.000139 0.000430
									CHANNELS 3 Zrotation Yrotation Xrotation
									End Site
									{
										OFFSET 0.000000 0.000000 0.000000
									}
								}
							}
						}
					}
				}
			}
		}
	}
}
MOTION
Frames: 11
Frame Time: 0.016667
-0.862148 0.000000 391.912190 180.000000 11.256916 180.000000 0.977338 91.558022 1.803712 94.609606 -0.550055 178.944156 175.553074 -0.043702 178.072485 -19.181514 -2.589601 -2.639802 82.229678 2.099910 0.923005 21.454558 0.003109 0.000017 176.419661 10.013307 -176.990979 -61.952342 1.107665 -6.696812 61.573902 11.186129 14.592059 21.454557 -0.003092 -0.000002 7.300665 -2.478726 0.417203 4.576765 -4.971795 0.737501 4.257364 -4.967386 0.767585 11.496531 -7.112252 1.517017 -17.722782 12.465451 -3.469615 173.032501 -74.581864 5.725768 8.587990 23.319640 61.677331 -97.244237 -3.015495 2.881933 -54.962135 -26.977184 55.709498 -164.350209 82.802156 17.412437 -4.657618 -38.443292 -71.917793 -78.556224 9.155345 -2.444719 -53.341420 22.558540 -52.004462 
-1.563214 0.000000 391.911052 180.000000 11.558675 180.000000 0.995297 91.533980 1.702235 94.808415 -0.547436 179.046579 176.271610 0.094775 178.131214 -19.115555 -2.651436 -2.800820 82.676855 2.222925 1.002974 21.454557 0.003109 0.000017 174.723491 10.172831 -177.327974 -64.096467 1.104031 -6.541344 63.662392 10.192467 13.273214 21.454552 -0.003091 0.000000 7.383424 -2.365521 0.334491 4.746177 -4.742585 0.572869 4.426891 -4.739176 0.601563 11.663219 -6.928930 1.605796 -17.654556 11.973238 -3.161729 172.084522 -74.421890 6.700890 8.365885 23.204391 62.230340 -96.841866 -3.100047 2.869741 -55.636431 -27.615046 56.229614 -164.610064 82.662335 17.150493 -4.954692 -38.061014 -71.662650 -78.714564 9.098875 -2.447612 -53.699305 22.840717 -52.138682 
-2.258582 0.000000 391.890302 180.000000 11.841956 180.000000 1.007319 91.513443 1.616987 94.941199 -0.471999 179.239855 176.860591 0.149900 178.266025 -19.146965 -2.696863 -2.944693 83.150783 2.329818 1.072210 21.454557 0.003109 0.000017 173.089465 10.182801 -177.544224 -65.622162 1.208156 -6.132507 66.023838 9.051840 11.999440 21.454551 -0.003091 0.000002 7.449036 -2.229974 0.239764 4.881367 -4.467927 0.386185 4.562222 -4.465652 0.413213 11.884206 -6.635309 1.670591 -17.554817 11.384249 -2.831135 171.130990 -74.345239 7.679331 8.190374 23.208891 62.825390 -96.404670 -3.197432 2.857036 -56.145926 -28.225576 56.633250 -164.784500 82.513649 16.974941 -5.054137 -37.660221 -71.377033 -78.946167 9.047634 -2.453936 -54.040394 22.928131 -52.290571 
-2.951741 0.000000 391.848083 180.000000 12.106054 180.000000 1.015860 91.495975 1.541127 95.032885 -0.329749 179.461548 177.360622 0.124374 178.306522 -19.271810 -2.690860 -3.008989 83.656406 2.377150 1.131585 21.454557 0.003108 0.000017 171.556699 10.046479 -177.657807 -66.482853 1.356574 -5.275466 67.827031 7.915963 11.267034 21.454552 -0.003093 0.000003 7.505321 -2.076783 0.146366 4.997362 -4.157835 0.203635 4.678361 -4.156668 0.228783 12.062471 -6.259609 1.732691 -17.374081 10.767702 -2.485377 170.087737 -74.379105 8.745936 8.079273 23.369169 63.451661 -95.920489 -3.310730 2.843390 -56.477913 -28.747250 56.860504 -164.760046 82.372145 17.000616 -4.982808 -37.269693 -71.028699 -79.248526 9.019924 -2.464943 -54.335008 22.681508 -52.324585 
-3.646534 0.000000 391.783335 180.000000 12.349731 180.000000 1.011926 91.460907 1.473093 95.090665 -0.171777 179.676053 177.755646 0.055405 178.207258 -19.538448 -2.650365 -2.982301 84.221033 2.358226 1.184280 21.454557 0.003107 0.000017 170.071943 9.840500 -177.768391 -66.791107 1.580260 -4.307108 69.370091 6.804161 10.656967 21.454553 -0.003094 0.000003 7.555445 -1.917917 0.057793 5.100358 -3.836434 0.031557 4.781490 -3.836310 0.054756 12.174991 -5.846506 1.800150 -17.087185 10.140201 -2.124963 169.201420 -74.472506 9.649585 7.912115 23.581651 64.116235 -95.394984 -3.428706 2.827970 -56.686488 -29.216372 57.012223 -164.459123 82.239103 17.306122 -4.786490 -36.875784 -70.598815 -79.621160 8.990523 -2.478998 -54.474033 22.193252 -52.339489 
-4.346387 0.000000 391.697067 180.000000 12.570380 180.000000 0.987151 91.392327 1.413170 95.119146 -0.043379 179.864382 178.036657 -0.023494 177.973661 -19.971318 -2.601843 -2.871920 84.859440 2.279823 1.234818 21.454557 0.003107 0.000017 168.589385 9.634165 -177.953543 -66.652123 1.908187 -3.583945 71.109474 5.747581 9.673898 21.454552 -0.003092 0.000000 7.601800 -1.763895 -0.026278 5.195213 -3.524772 -0.131287 4.876462 -3.525637 -0.109977 12.231126 -5.439947 1.875118 -16.698083 9.517556 -1.757123 168.725967 -74.573847 10.132331 7.578794 23.746924 64.829274 -94.840852 -3.551625 2.811476 -56.832775 -29.663042 57.198024 -163.858683 82.111523 17.914927 -4.512648 -36.466854 -70.075355 -80.057094 8.930754 -2.493660 -54.395082 21.576128 -52.454798 
-5.053585 0.000000 391.591341 180.000000 12.765746 180.000000 0.944951 91.313583 1.356968 95.133870 0.077846 -179.947068 178.278565 -0.125396 177.687084 -20.447510 -2.559720 -2.708539 85.513783 2.166189 1.291113 21.454558 0.003108 0.000017 167.186078 9.414702 -178.108152 -65.979394 2.290301 -3.005190 72.938401 4.765006 8.500697 21.454550 -0.003090 -0.000002 7.648197 -1.612182 -0.111522 5.289776 -3.217545 -0.296293 4.971132 -3.219413 -0.276843 12.295747 -5.064557 1.950460 -16.301607 8.966458 -1.420767 168.538182 -74.689310 10.320204 7.159354 23.911544 65.600565 -94.281027 -3.740142 2.799841 -56.924507 -30.000608 57.389106 -163.108795 81.986086 18.675297 -4.199679 -36.081798 -69.457456 -80.521591 8.841606 -2.507480 -54.300635 20.796056 -52.624424 
-5.769319 0.000000 391.467243 180.000000 12.935099 180.000000 0.891335 91.243679 1.298945 95.147756 0.206145 -179.736607 178.549860 -0.252381 177.428232 -20.854987 -2.535010 -2.527606 86.133872 2.043851 1.358273 21.454560 0.003108 0.000017 165.938976 9.178262 -178.133542 -64.683677 2.666725 -2.409547 74.669473 3.862543 7.452560 21.454546 -0.003092 -0.000001 7.697497 -1.461916 -0.202286 5.389888 -2.912817 -0.472197 5.071345 -2.915752 -0.454589 12.416709 -4.730018 2.021175 -15.979342 8.537288 -1.143118 168.420373 -74.826887 10.435652 6.773787 24.129589 66.423058 -93.741875 -4.038535 2.796911 -56.958508 -30.159808 57.534017 -162.331685 81.859664 19.463596 -3.880639 -35.757796 -68.760106 -80.978723 8.732897 -2.519702 -54.369299 19.830269 -52.776316 
-6.494743 0.000000 391.324379 180.000000 13.078534 180.000000 0.828660 91.144989 1.238196 95.149379 0.256770 -179.551993 178.809243 -0.315904 177.201335 -21.272165 -2.533540 -2.361459 86.772669 1.931194 1.424432 21.454562 0.003108 0.000017 164.804186 9.012697 -178.143546 -62.860108 3.026052 -1.857548 76.391485 3.108393 6.670619 21.454545 -0.003095 -0.000000 7.747547 -1.332050 -0.292368 5.491209 -2.648746 -0.647432 5.172752 -2.652744 -0.631418 12.519154 -4.404985 2.096824 -15.676228 8.158197 -0.884330 168.178203 -74.952443 10.678601 6.503904 24.346572 67.220501 -93.253535 -4.364724 2.797505 -56.948784 -30.256378 57.634119 -161.401861 81.726696 20.407011 -3.574378 -35.475482 -68.049604 -81.415424 8.620004 -2.530741 -54.422758 18.852415 -52.921080 
-7.232273 0.000000 391.159816 180.000000 13.196568 180.000000 0.756924 90.985485 1.171250 95.123245 0.161427 -179.438961 179.014020 -0.241021 177.007308 -21.770978 -2.554717 -2.239661 87.478679 1.844330 1.474850 21.454560 0.003107 0.000017 163.732422 8.984063 -178.255231 -60.611020 3.376189 -1.412802 78.176613 2.541847 6.203940 21.454546 -0.003096 0.000000 7.795767 -1.236767 -0.376009 5.588675 -2.453977 -0.811171 5.270282 -2.458967 -0.796331 12.512859 -4.066095 2.189409 -15.322928 7.744608 -0.598847 167.693263 -75.027349 11.171437 6.396231 24.502934 67.915793 -92.833042 -4.631113 2.797096 -56.924626 -30.411056 57.709379 -160.246166 81.585413 21.579768 -3.292327 -35.209585 -67.388278 -81.824662 8.515890 -2.541231 -54.273072 18.039000 -53.074628 
-7.984989 0.000000 390.969719 180.000000 13.289934 180.000000 0.676319 90.812172 1.086352 95.066230 0.016039 -179.366217 179.228235 -0.096604 176.906653 -22.206938 -2.579116 -2.183890 88.179148 1.798056 1.500686 21.454558 0.003107 0.000017 162.771823 9.002595 -178.375171 -57.878674 3.718122 -0.923874 79.765530 2.016136 5.904206 21.454550 -0.003095 0.000000 7.842507 -1.151284 -0.459564 5.683008 -2.278676 -0.975011 5.364674 -2.284659 -0.961229 12.367846 -3.763524 2.309293 -14.923053 7.287735 -0.276734 167.138512 -75.039507 11.737885 6.402555 24.634299 68.497234 -92.440906 -4.854795 2.795415 -56.955577 -30.580016 57.798986 -159.189877 81.458536 22.652036 -3.030176 -34.970356 -66.772215 -82.200581 8.418361 -2.550776 -54.041487 17.377145 -53.160277 
